<?xml version="1.0" encoding="utf-8"?>
<!-- Generator: Adobe Illustrator 21.0.2, SVG Export Plug-In . SVG Version: 6.00 Build 0)  -->
<svg version="1.1" id="Layer_1" xmlns="http://www.w3.org/2000/svg" xmlns:xlink="http://www.w3.org/1999/xlink" x="0px" y="0px"
	 viewBox="0 0 134.5 72" style="enable-background:new 0 0 134.5 72;" xml:space="preserve">
<style type="text/css">
	.st0{fill:none;stroke:#000000;stroke-miterlimit:10;}
</style>
<polygon points="9.2,29.1 9.2,66.4 15.5,66.4 15.5,65.4 10.2,65.4 10.2,30.1 124.3,30.1 124.3,65.4 119,65.4 119,66.4 125.3,66.4 
	125.3,29.1 "/>
<g>
	<path d="M38.8,55.4V42.9h-0.1l-5,5.9l-5-5.9h-0.1v12.5h-2.5V40h3l4.7,5.6l4.6-5.6h3v15.4H38.8z"/>
	<path d="M44.3,55.4V40h2.6v15.4H44.3z"/>
	<path d="M60.5,55.4V43.5h-0.1l-7.8,11.9h-2.8V40h2.5v12h0.1l7.9-12h2.7v15.4H60.5z M56.4,39.5c-1.7,0-2.8-1-3.2-2.6l1.5-0.3
		c0.2,1,0.9,1.4,1.7,1.4s1.5-0.4,1.7-1.4l1.5,0.3C59.2,38.5,58,39.5,56.4,39.5z"/>
	<path d="M83.6,59.1v-3.6H73.1v3.6h-2.4v-5.7h1.5c1.2-1.4,2-5.2,2.2-8.6l0.3-4.8h9.5v13.4h1.7v5.7H83.6z M81.7,42.1h-4.6l-0.3,3.4
		c-0.2,3.1-0.9,6.2-1.8,7.9h6.6V42.1z"/>
	<path d="M87.6,55.4V40h2.6v15.4H87.6z"/>
	<path d="M105.8,55.4V42.9h-0.1l-5,5.9l-5-5.9h-0.1v12.5h-2.5V40h3l4.7,5.6l4.6-5.6h3v15.4H105.8z"/>
</g>
<g>
	<path d="M20,68.7c-1.9,0-3.2-1.5-3.2-3.2c0-1.8,1.3-3.2,3.2-3.2c1.9,0,3.2,1.4,3.2,3.2C23.2,67.3,21.9,68.7,20,68.7z M20,63.1
		c-1.4,0-2.4,1.1-2.4,2.5c0,1.4,1,2.5,2.4,2.5c1.5,0,2.4-1.2,2.4-2.5C22.4,64.1,21.4,63.1,20,63.1z"/>
	<path d="M24.2,65.6c0-1.9,1.3-3.2,3.3-3.2c0.5,0,1,0.1,1.3,0.3v0.7c-0.4-0.2-0.8-0.3-1.2-0.3c-1.7,0-2.6,1.1-2.6,2.5
		c0,1.3,0.9,2.5,2.7,2.5c0.5,0,0.9-0.2,1.3-0.3v0.7c-0.5,0.2-1,0.3-1.4,0.3C25.5,68.7,24.2,67.3,24.2,65.6z"/>
	<path d="M32.9,68.7c-1.9,0-3.2-1.5-3.2-3.2c0-1.8,1.3-3.2,3.2-3.2c1.9,0,3.2,1.4,3.2,3.2C36.1,67.3,34.7,68.7,32.9,68.7z
		 M32.9,63.1c-1.4,0-2.4,1.1-2.4,2.5c0,1.4,1,2.5,2.4,2.5c1.5,0,2.4-1.2,2.4-2.5C35.3,64.1,34.3,63.1,32.9,63.1z"/>
	<path d="M40.3,68.7c-1.9,0-3.2-1.3-3.2-3.5c0-3.3,0.8-4.9,4.1-5c0.2,0,1-0.1,1.5-0.1v0.7c-0.4,0.1-1.1,0.1-1.4,0.1
		c-2.3,0.1-3.1,0.8-3.5,3.2h0c0.6-1.2,1.6-1.6,2.7-1.6c1.7,0,3,1.4,3,3.1C43.4,67.3,42.2,68.7,40.3,68.7z M40.4,63.2
		c-1.3,0-2.5,1.1-2.5,2.5c0,1.4,1,2.5,2.4,2.5c1.5,0,2.3-1.2,2.3-2.5C42.7,64.2,41.7,63.2,40.4,63.2z"/>
	<path d="M49.1,63.6L49.1,63.6l-3.4,5h-1v-6h0.7v5.2h0l3.5-5.2h0.9v6h-0.7V63.6z"/>
	<path d="M51.1,65.6c0-1.9,1.3-3.2,3.3-3.2c0.5,0,1,0.1,1.3,0.3v0.7c-0.4-0.2-0.8-0.3-1.2-0.3c-1.7,0-2.6,1.1-2.6,2.5
		c0,1.3,0.9,2.5,2.7,2.5c0.5,0,0.9-0.2,1.3-0.3v0.7c-0.5,0.2-1,0.3-1.4,0.3C52.4,68.7,51.1,67.3,51.1,65.6z"/>
	<path d="M59.1,68.6h-0.7v-5.4h-2.2v-0.6h5.2v0.6h-2.2V68.6z"/>
	<path d="M66.5,63.6L66.5,63.6l-3.4,5h-1v-6h0.7v5.2h0l3.5-5.2h0.9v6h-0.7V63.6z"/>
	<path d="M73.2,68.6v-5h0l-3.4,5h-1v-6h0.7v5.2h0l3.5-5.2h0.9v6H73.2z M71.4,61.5c-0.7,0-1.3-0.4-1.5-1.2l0.6-0.2
		c0.2,0.6,0.5,0.8,1,0.8s0.9-0.2,1-0.8l0.5,0.2C72.6,61.1,72.1,61.5,71.4,61.5z"/>
	<path d="M78.8,62.6h0.7v2.8l3-2.8h1l-3.2,2.8l3.5,3.3h-1l-3.4-3.1v3.1h-0.7V62.6z"/>
	<path d="M88.6,67.9L88.6,67.9c-0.5,0.4-1.3,0.8-2.2,0.8c-1.2,0-2.1-0.8-2.1-1.9c0-1.6,1.8-2,2.7-2c0.8,0,1.4,0.2,1.6,0.3v-0.5
		c0-1.1-0.6-1.5-1.8-1.5c-0.8,0-1.3,0.3-1.8,0.6V63c0.3-0.2,1.1-0.6,1.9-0.6c1.7,0,2.4,0.8,2.4,2.4v3.8h-0.7V67.9z M87.2,65.4
		c-0.6,0-2.1,0.1-2.1,1.5c0,0.9,0.8,1.2,1.4,1.2c0.7,0,1.6-0.4,2.1-0.9v-1.5C88.3,65.6,87.7,65.4,87.2,65.4z"/>
	<path d="M93.8,68.7c-1.9,0-3.2-1.3-3.2-3.5c0-3.3,0.8-4.9,4.1-5c0.2,0,1-0.1,1.5-0.1v0.7c-0.4,0.1-1.1,0.1-1.4,0.1
		c-2.3,0.1-3.1,0.8-3.5,3.2h0c0.6-1.2,1.6-1.6,2.7-1.6c1.7,0,3,1.4,3,3.1C96.9,67.3,95.7,68.7,93.8,68.7z M93.9,63.2
		c-1.3,0-2.5,1.1-2.5,2.5c0,1.4,1,2.5,2.4,2.5c1.5,0,2.3-1.2,2.3-2.5C96.2,64.2,95.2,63.2,93.9,63.2z"/>
	<path d="M98.2,61.1v-1.1H99v1.1H98.2z M98.2,68.6v-6H99v6H98.2z"/>
	<path d="M105,65.7h-3.7v2.9h-0.7v-6h0.7v2.5h3.7v-2.5h0.7v6H105V65.7z"/>
	<path d="M110.3,68.1c0.6,0,1.4-0.2,1.9-0.5v0.8c-0.5,0.2-1.1,0.3-2,0.3c-2.1,0-3.3-1.4-3.3-3.3c0-1.8,1.2-3.1,2.9-3.1
		c1.9,0,2.8,1.2,2.8,3v0.4h-4.9C107.7,67.2,109,68.1,110.3,68.1z M107.7,65.2h4.2c0-1.3-0.8-2.1-2-2.1
		C108.6,63.1,107.8,64,107.7,65.2z"/>
	<path d="M115.9,68.6h-0.7v-5.4h-2.2v-0.6h5.2v0.6h-2.2V68.6z"/>
</g>
<polyline class="st0" points="0,33.8 67.3,1.7 134.5,33.8 "/>
</svg>
